# xmcd
#
# Track frame offsets:
#	150
#	8352
#	16420
#	75997
#	134122
#	195250
#	256562
#	265027
#
# Disc length: 4097 seconds
#
# Revision: 1
# Processed by: cddbd v1.5.1PL0 Copyright (c) Steve Scherf et al.
# Submitted via: CDex 1.50Beta5
#
DISCID=4f0fff08
DTITLE=銀河お嬢様伝説ユナ - Galaxy Wave Segment. 2 「君は…芸人のように生きられるか!?」
DYEAR=1900
DGENRE=Anime
TTITLE0=オープニング “ボケ”と“ボケ”ツっこみのないManzaiなんて・・・
TTITLE1=Funny Funny Little Girl＜Short Version ?＞
TTITLE2=第５話「ネオ東京銀座７丁目の奇跡」
TTITLE3=第６話「目指せ お笑いスター激闘地獄変！」
TTITLE4=第７話「不死鳥再び！ユナ、戦慄のカムバック!!」
TTITLE5=第８話「ついに決着！ネオ武道館の血闘!!」
TTITLE6=エンディング ああ・・・なんてお約束なの！
TTITLE7=Galaxy Wave Segment. 2　Bonus Track
EXTD=
EXTT0=
EXTT1=
EXTT2=
EXTT3=
EXTT4=
EXTT5=
EXTT6=
EXTT7=
PLAYORDER=
